<mxfile host="app.diagrams.net" agent="Mozilla/5.0 (Windows NT 10.0; Win64; x64) AppleWebKit/537.36 (KHTML, like Gecko) Chrome/131.0.0.0 Safari/537.36 Edg/131.0.0.0" version="25.0.3">
  <diagram id="prtHgNgQTEPvFCAcTncT" name="Page-1">
    <mxGraphModel dx="1213" dy="781" grid="1" gridSize="10" guides="1" tooltips="1" connect="1" arrows="1" fold="1" page="1" pageScale="1" pageWidth="827" pageHeight="1169" math="0" shadow="0">
      <root>
        <mxCell id="0" />
        <mxCell id="1" parent="0" />
        <mxCell id="sTrtAjCslCf-ZNAC8gBk-1" value="&lt;div&gt;&lt;font style=&quot;font-size: 19px;&quot;&gt;核心&lt;/font&gt;&lt;/div&gt;&lt;div&gt;&lt;span style=&quot;font-size: 19px; background-color: initial;&quot;&gt;技術&lt;/span&gt;&lt;/div&gt;&lt;div&gt;&lt;span style=&quot;font-size: 19px;&quot;&gt;———&lt;/span&gt;&lt;/div&gt;&lt;div&gt;&lt;span style=&quot;font-size: 19px;&quot;&gt;Spring&lt;/span&gt;&lt;/div&gt;&lt;div&gt;&lt;span style=&quot;font-size: 19px;&quot;&gt;Boot&lt;/span&gt;&lt;/div&gt;&lt;div&gt;&lt;font style=&quot;font-size: 19px;&quot;&gt;&lt;br&gt;&lt;/font&gt;&lt;/div&gt;&lt;div&gt;&lt;span style=&quot;font-size: 19px;&quot;&gt;Mysql&lt;/span&gt;&lt;/div&gt;&lt;div&gt;&lt;font style=&quot;font-size: 19px;&quot;&gt;&lt;br&gt;&lt;/font&gt;&lt;/div&gt;&lt;div&gt;&lt;span style=&quot;font-size: 19px;&quot;&gt;Redis&lt;/span&gt;&lt;/div&gt;&lt;div&gt;&lt;span style=&quot;font-size: 19px;&quot;&gt;&lt;br&gt;&lt;/span&gt;&lt;/div&gt;&lt;div&gt;---&lt;/div&gt;&lt;div&gt;&lt;span style=&quot;font-size: 19px;&quot;&gt;&lt;br&gt;&lt;/span&gt;&lt;/div&gt;&lt;div&gt;&lt;span style=&quot;font-size: 19px;&quot;&gt;人工&lt;/span&gt;&lt;/div&gt;&lt;div&gt;&lt;span style=&quot;font-size: 19px; background-color: initial;&quot;&gt;智能&lt;/span&gt;&lt;/div&gt;&lt;div&gt;&lt;font style=&quot;font-size: 19px;&quot;&gt;&lt;br&gt;&lt;/font&gt;&lt;/div&gt;&lt;div&gt;&lt;font style=&quot;font-size: 19px;&quot;&gt;智慧&lt;/font&gt;&lt;/div&gt;&lt;div&gt;&lt;font style=&quot;font-size: 19px;&quot;&gt;硬件&lt;/font&gt;&lt;/div&gt;&lt;div&gt;&lt;font style=&quot;font-size: 19px;&quot;&gt;&lt;br&gt;&lt;/font&gt;&lt;/div&gt;&lt;div&gt;&lt;font style=&quot;font-size: 19px;&quot;&gt;大&lt;/font&gt;&lt;/div&gt;&lt;div&gt;&lt;font style=&quot;font-size: 19px;&quot;&gt;數&lt;/font&gt;&lt;/div&gt;&lt;div&gt;&lt;font style=&quot;font-size: 19px;&quot;&gt;據&lt;/font&gt;&lt;/div&gt;" style="rounded=0;whiteSpace=wrap;html=1;fillColor=#dae8fc;strokeColor=#6c8ebf;verticalAlign=top;" vertex="1" parent="1">
          <mxGeometry x="40" y="80" width="80" height="490" as="geometry" />
        </mxCell>
        <mxCell id="sTrtAjCslCf-ZNAC8gBk-2" value="&lt;div&gt;&lt;span style=&quot;font-size: 19px;&quot;&gt;系統&lt;/span&gt;&lt;/div&gt;&lt;div&gt;&lt;span style=&quot;background-color: initial; font-size: 19px;&quot;&gt;支持&lt;/span&gt;&lt;/div&gt;&lt;div&gt;&lt;span style=&quot;font-size: 19px;&quot;&gt;———&lt;/span&gt;&lt;/div&gt;&lt;div&gt;&lt;div&gt;&lt;span style=&quot;font-size: 19px;&quot;&gt;系統&lt;/span&gt;&lt;/div&gt;&lt;div&gt;&lt;span style=&quot;font-size: 19px; background-color: initial;&quot;&gt;安全&lt;/span&gt;&lt;/div&gt;&lt;div&gt;&lt;span style=&quot;font-size: 19px;&quot;&gt;&lt;br&gt;&lt;/span&gt;&lt;/div&gt;&lt;div&gt;&lt;span style=&quot;font-size: 19px;&quot;&gt;&lt;br&gt;&lt;/span&gt;&lt;/div&gt;&lt;div&gt;&lt;span style=&quot;font-size: 19px;&quot;&gt;&lt;br&gt;&lt;/span&gt;&lt;/div&gt;&lt;div&gt;&lt;span style=&quot;font-size: 19px;&quot;&gt;數據&lt;/span&gt;&lt;/div&gt;&lt;div&gt;&lt;span style=&quot;font-size: 19px;&quot;&gt;加密&lt;/span&gt;&lt;/div&gt;&lt;div&gt;&lt;span style=&quot;font-size: 19px;&quot;&gt;&lt;br&gt;&lt;/span&gt;&lt;/div&gt;&lt;div&gt;&lt;span style=&quot;font-size: 19px;&quot;&gt;&lt;br&gt;&lt;/span&gt;&lt;/div&gt;&lt;div&gt;&lt;span style=&quot;font-size: 19px;&quot;&gt;&lt;br&gt;&lt;/span&gt;&lt;/div&gt;&lt;div&gt;&lt;span style=&quot;font-size: 19px;&quot;&gt;系統&lt;/span&gt;&lt;/div&gt;&lt;div&gt;&lt;span style=&quot;font-size: 19px;&quot;&gt;日誌&lt;/span&gt;&lt;/div&gt;&lt;div&gt;&lt;span style=&quot;font-size: 19px;&quot;&gt;&lt;br&gt;&lt;/span&gt;&lt;/div&gt;&lt;div&gt;&lt;span style=&quot;font-size: 19px;&quot;&gt;&lt;br&gt;&lt;/span&gt;&lt;/div&gt;&lt;div&gt;&lt;span style=&quot;font-size: 19px;&quot;&gt;&lt;br&gt;&lt;/span&gt;&lt;/div&gt;&lt;div&gt;&lt;span style=&quot;font-size: 19px;&quot;&gt;服務&lt;/span&gt;&lt;/div&gt;&lt;div&gt;&lt;span style=&quot;font-size: 19px;&quot;&gt;運維&lt;/span&gt;&lt;/div&gt;&lt;/div&gt;" style="rounded=0;whiteSpace=wrap;html=1;fillColor=#dae8fc;strokeColor=#6c8ebf;horizontal=1;verticalAlign=top;" vertex="1" parent="1">
          <mxGeometry x="740" y="80" width="60" height="490" as="geometry" />
        </mxCell>
        <mxCell id="sTrtAjCslCf-ZNAC8gBk-3" value="SAAS 服务" style="rounded=0;whiteSpace=wrap;html=1;dashed=1;" vertex="1" parent="1">
          <mxGeometry x="140" y="80" width="240" height="60" as="geometry" />
        </mxCell>
        <mxCell id="sTrtAjCslCf-ZNAC8gBk-5" value="" style="image;sketch=0;aspect=fixed;html=1;points=[];align=center;fontSize=12;image=img/lib/mscae/Software_as_a_Service.svg;" vertex="1" parent="1">
          <mxGeometry x="170" y="85" width="50" height="50" as="geometry" />
        </mxCell>
        <mxCell id="sTrtAjCslCf-ZNAC8gBk-6" value="" style="shape=image;html=1;verticalAlign=top;verticalLabelPosition=bottom;labelBackgroundColor=#ffffff;imageAspect=0;aspect=fixed;image=https://cdn4.iconfinder.com/data/icons/ionicons/512/icon-plus-round-128.png" vertex="1" parent="1">
          <mxGeometry x="390" y="80" width="60" height="60" as="geometry" />
        </mxCell>
        <mxCell id="sTrtAjCslCf-ZNAC8gBk-7" value="PWA（IOS）+PWA（Android）" style="rounded=0;whiteSpace=wrap;html=1;dashed=1;" vertex="1" parent="1">
          <mxGeometry x="460" y="85" width="240" height="60" as="geometry" />
        </mxCell>
        <mxCell id="sTrtAjCslCf-ZNAC8gBk-9" value="" style="whiteSpace=wrap;html=1;fillColor=#1ba1e2;fontColor=#ffffff;strokeColor=#006EAF;" vertex="1" parent="1">
          <mxGeometry x="140" y="170" width="380" height="230" as="geometry" />
        </mxCell>
        <mxCell id="sTrtAjCslCf-ZNAC8gBk-11" value="" style="whiteSpace=wrap;html=1;fillColor=#0050ef;fontColor=#ffffff;strokeColor=#001DBC;" vertex="1" parent="1">
          <mxGeometry x="140" y="510" width="560" height="60" as="geometry" />
        </mxCell>
        <mxCell id="sTrtAjCslCf-ZNAC8gBk-12" value="" style="whiteSpace=wrap;html=1;fillColor=#fad7ac;strokeColor=#b46504;" vertex="1" parent="1">
          <mxGeometry x="140" y="430" width="560" height="60" as="geometry" />
        </mxCell>
        <mxCell id="sTrtAjCslCf-ZNAC8gBk-13" value="" style="whiteSpace=wrap;html=1;fillColor=#1ba1e2;fontColor=#ffffff;strokeColor=#006EAF;" vertex="1" parent="1">
          <mxGeometry x="540" y="170" width="160" height="230" as="geometry" />
        </mxCell>
        <mxCell id="sTrtAjCslCf-ZNAC8gBk-15" value="" style="dashed=0;outlineConnect=0;html=1;align=center;labelPosition=center;verticalLabelPosition=bottom;verticalAlign=top;shape=mxgraph.weblogos.android;fillColor=#A4CA39;strokeColor=none" vertex="1" parent="1">
          <mxGeometry x="660" y="92.5" width="30" height="35" as="geometry" />
        </mxCell>
        <mxCell id="sTrtAjCslCf-ZNAC8gBk-17" value="" style="dashed=0;outlineConnect=0;html=1;align=center;labelPosition=center;verticalLabelPosition=bottom;verticalAlign=top;shape=mxgraph.weblogos.apple;fillColor=#1ba1e2;strokeColor=#006EAF;fontColor=#ffffff;" vertex="1" parent="1">
          <mxGeometry x="460" y="91.3" width="29" height="36.2" as="geometry" />
        </mxCell>
        <mxCell id="sTrtAjCslCf-ZNAC8gBk-21" value="&lt;font color=&quot;#ffffff&quot;&gt;知识分享&lt;/font&gt;" style="text;html=1;align=center;verticalAlign=middle;resizable=0;points=[];autosize=1;strokeColor=none;fillColor=none;fontSize=16;" vertex="1" parent="1">
          <mxGeometry x="285" y="180" width="90" height="30" as="geometry" />
        </mxCell>
        <mxCell id="sTrtAjCslCf-ZNAC8gBk-22" value="工具列表" style="rounded=0;whiteSpace=wrap;html=1;fillColor=#0050ef;fontColor=#ffffff;strokeColor=#001DBC;" vertex="1" parent="1">
          <mxGeometry x="180" y="275" width="120" height="40" as="geometry" />
        </mxCell>
        <mxCell id="sTrtAjCslCf-ZNAC8gBk-23" value="服务列表" style="rounded=0;whiteSpace=wrap;html=1;fillColor=#0050ef;fontColor=#ffffff;strokeColor=#001DBC;" vertex="1" parent="1">
          <mxGeometry x="360" y="275" width="120" height="40" as="geometry" />
        </mxCell>
        <mxCell id="sTrtAjCslCf-ZNAC8gBk-28" value="文章列表" style="rounded=0;whiteSpace=wrap;html=1;fillColor=#0050ef;fontColor=#ffffff;strokeColor=#001DBC;" vertex="1" parent="1">
          <mxGeometry x="360" y="220" width="120" height="40" as="geometry" />
        </mxCell>
        <mxCell id="sTrtAjCslCf-ZNAC8gBk-30" value="......" style="rounded=0;whiteSpace=wrap;html=1;fillColor=#0050ef;fontColor=#ffffff;strokeColor=#001DBC;" vertex="1" parent="1">
          <mxGeometry x="360" y="330" width="120" height="40" as="geometry" />
        </mxCell>
        <mxCell id="sTrtAjCslCf-ZNAC8gBk-31" value="智能问答" style="rounded=0;whiteSpace=wrap;html=1;fillColor=#0050ef;fontColor=#ffffff;strokeColor=#001DBC;" vertex="1" parent="1">
          <mxGeometry x="180" y="330" width="120" height="40" as="geometry" />
        </mxCell>
        <mxCell id="sTrtAjCslCf-ZNAC8gBk-33" value="文件列表" style="rounded=0;whiteSpace=wrap;html=1;fillColor=#0050ef;fontColor=#ffffff;strokeColor=#001DBC;" vertex="1" parent="1">
          <mxGeometry x="180" y="220" width="120" height="40" as="geometry" />
        </mxCell>
        <mxCell id="sTrtAjCslCf-ZNAC8gBk-34" value="&lt;font color=&quot;#ffffff&quot;&gt;知识管理&lt;/font&gt;" style="text;html=1;align=center;verticalAlign=middle;resizable=0;points=[];autosize=1;strokeColor=none;fillColor=none;fontSize=16;" vertex="1" parent="1">
          <mxGeometry x="575" y="180" width="90" height="30" as="geometry" />
        </mxCell>
        <mxCell id="sTrtAjCslCf-ZNAC8gBk-35" value="文章管理" style="rounded=0;whiteSpace=wrap;html=1;fillColor=#0050ef;fontColor=#ffffff;strokeColor=#001DBC;" vertex="1" parent="1">
          <mxGeometry x="560" y="220" width="120" height="40" as="geometry" />
        </mxCell>
        <mxCell id="sTrtAjCslCf-ZNAC8gBk-36" value="文件管理" style="rounded=0;whiteSpace=wrap;html=1;fillColor=#0050ef;fontColor=#ffffff;strokeColor=#001DBC;" vertex="1" parent="1">
          <mxGeometry x="560" y="275" width="120" height="40" as="geometry" />
        </mxCell>
        <mxCell id="sTrtAjCslCf-ZNAC8gBk-37" value="......" style="rounded=0;whiteSpace=wrap;html=1;fillColor=#0050ef;fontColor=#ffffff;strokeColor=#001DBC;" vertex="1" parent="1">
          <mxGeometry x="560" y="330" width="120" height="40" as="geometry" />
        </mxCell>
        <mxCell id="sTrtAjCslCf-ZNAC8gBk-39" value="知识管理" style="rounded=0;whiteSpace=wrap;html=1;fillColor=#f0a30a;fontColor=#000000;strokeColor=#BD7000;labelBackgroundColor=none;" vertex="1" parent="1">
          <mxGeometry x="169" y="445" width="110" height="30" as="geometry" />
        </mxCell>
        <mxCell id="sTrtAjCslCf-ZNAC8gBk-43" value="知识分享" style="rounded=0;whiteSpace=wrap;html=1;fillColor=#f0a30a;fontColor=#000000;strokeColor=#BD7000;labelBackgroundColor=none;gradientColor=none;" vertex="1" parent="1">
          <mxGeometry x="294" y="445" width="110" height="30" as="geometry" />
        </mxCell>
        <mxCell id="sTrtAjCslCf-ZNAC8gBk-44" value="个人服务" style="rounded=0;whiteSpace=wrap;html=1;fillColor=#f0a30a;fontColor=#000000;strokeColor=#BD7000;labelBackgroundColor=none;" vertex="1" parent="1">
          <mxGeometry x="548" y="445" width="110" height="30" as="geometry" />
        </mxCell>
        <mxCell id="sTrtAjCslCf-ZNAC8gBk-45" value="效率工具" style="rounded=0;whiteSpace=wrap;html=1;fillColor=#f0a30a;fontColor=#000000;strokeColor=#BD7000;labelBackgroundColor=none;" vertex="1" parent="1">
          <mxGeometry x="423" y="445" width="110" height="30" as="geometry" />
        </mxCell>
        <mxCell id="sTrtAjCslCf-ZNAC8gBk-46" value="在线笔记" style="rounded=0;whiteSpace=wrap;html=1;fillColor=#d5e8d4;strokeColor=#82b366;labelBackgroundColor=none;gradientColor=#97d077;" vertex="1" parent="1">
          <mxGeometry x="548" y="525" width="110" height="30" as="geometry" />
        </mxCell>
        <mxCell id="sTrtAjCslCf-ZNAC8gBk-47" value="在线文档" style="rounded=0;whiteSpace=wrap;html=1;fillColor=#d5e8d4;strokeColor=#82b366;labelBackgroundColor=none;gradientColor=#97d077;" vertex="1" parent="1">
          <mxGeometry x="423" y="525" width="110" height="30" as="geometry" />
        </mxCell>
        <mxCell id="sTrtAjCslCf-ZNAC8gBk-48" value="智能问答" style="rounded=0;whiteSpace=wrap;html=1;fillColor=#d5e8d4;strokeColor=#82b366;labelBackgroundColor=none;gradientColor=#97d077;" vertex="1" parent="1">
          <mxGeometry x="294" y="525" width="110" height="30" as="geometry" />
        </mxCell>
        <mxCell id="sTrtAjCslCf-ZNAC8gBk-50" value="个人博客" style="rounded=0;whiteSpace=wrap;html=1;fillColor=#d5e8d4;strokeColor=#82b366;labelBackgroundColor=none;gradientColor=#97d077;" vertex="1" parent="1">
          <mxGeometry x="169" y="525" width="110" height="30" as="geometry" />
        </mxCell>
      </root>
    </mxGraphModel>
  </diagram>
</mxfile>
